<svg width="720" height="720" viewBox="0 0 720 720" fill="none" xmlns="http://www.w3.org/2000/svg">
<path fill-rule="evenodd" clip-rule="evenodd" d="M559.044 62.1664L567.218 63.1922C588.823 66.1732 617.416 70.18 633.603 86.3996C646.874 99.6381 651.97 121.179 655.015 140.411L656.811 152.785C660.849 181.954 661.907 220.163 655.015 262.603C641.424 346.362 596.837 446.308 484.87 523.687C484.261 529.714 484.229 535.804 484.357 541.894L484.678 550.998C485.191 565.006 485.704 579.013 481.793 592.604C475.703 613.76 454.002 627.704 433.711 637.705L423.774 642.417L410.952 648.059C386.976 658.252 354.601 668.702 334.31 648.379C322.129 636.231 317.129 618.408 313.058 600.682L311.551 594.047C309.829 585.675 307.69 577.395 305.141 569.237C303.538 564.535 301.807 559.781 299.948 554.972C297.902 557.485 295.73 559.892 293.441 562.185C282.382 573.244 265.874 580.969 252.283 586.386C237.441 592.252 220.645 597.381 205.098 601.612L197.117 603.727L181.827 607.542L167.979 610.747L151.407 614.273L141.053 616.293C135.89 617.249 130.571 616.934 125.556 615.377C120.541 613.819 115.98 611.065 112.267 607.351C108.553 603.638 105.799 599.077 104.241 594.062C102.684 589.047 102.369 583.728 103.325 578.565L106.082 564.749L111.018 542.375L114.993 526.027L118.006 514.488C122.237 498.973 127.366 482.177 133.264 467.368C138.649 453.744 146.374 437.236 157.433 426.177L159.998 423.709L157.946 422.876C152.467 420.795 146.919 418.903 141.31 417.202L132.431 414.478C110.185 407.746 86.4005 400.502 71.6234 385.693C53.6728 367.774 59.7311 340.496 68.3859 317.801L71.9119 309.018L77.5855 296.196L82.2975 286.259C92.2985 266.001 106.242 244.3 127.398 238.21C138.617 235.004 150.285 234.812 162.017 235.133L169.069 235.357C178.237 235.677 187.372 236.03 196.315 235.165C273.695 123.166 373.641 78.5783 457.399 64.9872C491 59.4762 525.19 58.5274 559.044 62.1664ZM244.525 468.457C239.482 464.719 233.452 462.545 227.184 462.203C220.916 461.861 214.685 463.367 209.265 466.534L205.739 468.906L202.758 471.567L198.752 476.631C190.417 488.684 185.673 505.352 181.987 520.931L178.525 535.932L176.89 542.76L183.013 541.285L196.412 538.208C214.939 533.881 235.486 528.271 248.116 516.892C253.607 511.403 256.919 504.108 257.438 496.362C257.957 488.615 255.647 480.944 250.936 474.772L248.308 471.759L247.539 471.022L244.525 468.457ZM474.773 244.909C468.821 238.955 461.754 234.231 453.976 231.008C446.199 227.785 437.862 226.125 429.443 226.124C421.024 226.122 412.687 227.779 404.908 230.999C397.129 234.22 390.061 238.941 384.107 244.893C378.152 250.845 373.429 257.912 370.206 265.69C366.982 273.467 365.323 281.804 365.321 290.223C365.32 298.642 366.976 306.979 370.197 314.758C373.417 322.537 378.139 329.605 384.091 335.559C396.112 347.585 412.417 354.342 429.421 354.345C446.424 354.348 462.732 347.596 474.757 335.575C486.782 323.554 493.54 307.249 493.543 290.246C493.546 273.242 486.794 256.934 474.773 244.909Z" fill="white"/>
</svg>
